<svg id="twitter" xmlns="http://www.w3.org/2000/svg" width="39.946" height="32.621" viewBox="0 0 39.946 32.621">
  <defs>
    <style>
      .cls-1 {
        fill: #f3f3f3;
      }
    </style>
  </defs>
  <path id="パス_6" data-name="パス 6" class="cls-1" d="M356.677-279.641a8.536,8.536,0,0,0-5.6,5.273,5.9,5.9,0,0,0-.352,2.724l-.014,1.816-1.044-.081a22.739,22.739,0,0,1-7.9-2.264,21.577,21.577,0,0,1-6.886-5.191,6.562,6.562,0,0,0-1.044-1.044,1.879,1.879,0,0,0-.393.664,8.83,8.83,0,0,0,.041,6.994,9.517,9.517,0,0,0,2.209,2.846l.651.515-.7-.081a6.959,6.959,0,0,1-1.559-.434,10.176,10.176,0,0,0-1.179-.434c-.325-.081-.325-.081-.23.813a8.359,8.359,0,0,0,5.612,7.008c.42.136.678.271.583.325a8.178,8.178,0,0,1-1.64.068,7.588,7.588,0,0,0-1.572.054c-.136.136.217.989.759,1.843a8.291,8.291,0,0,0,5.9,3.782l.813.108-.746.488a16.623,16.623,0,0,1-9.583,2.643c-1.125-.068-1.41-.041-1.545.122-.217.258-.271.217,1.776,1.261a22.493,22.493,0,0,0,9.692,2.535,22.625,22.625,0,0,0,19.614-9.1,25.062,25.062,0,0,0,4.853-14.273,3.329,3.329,0,0,1,.122-1.247c.38,0,3.972-3.809,3.782-4a1.911,1.911,0,0,0-.746.2,25.825,25.825,0,0,1-3.294.867l-.474.081.407-.3a10.191,10.191,0,0,0,2.67-3.09,5.033,5.033,0,0,0,.461-1.057,2.624,2.624,0,0,0-.746.3,16.091,16.091,0,0,1-3.253,1.247l-1.139.312-.691-.61a9.322,9.322,0,0,0-3.4-1.749A10.438,10.438,0,0,0,356.677-279.641Z" transform="translate(-331.147 279.883)"/>
</svg>
