<svg xmlns="http://www.w3.org/2000/svg" width="37.626" height="30.101" viewBox="0 0 37.626 30.101">
  <path id="user-clock-solid" d="M29.16,13.169a8.466,8.466,0,1,0,8.466,8.466A8.46,8.46,0,0,0,29.16,13.169Zm3.763,8.836a.575.575,0,0,1-.57.57H28.79a.575.575,0,0,1-.57-.57V17.5a.575.575,0,0,1,.57-.57h.741a.575.575,0,0,1,.57.57v3.192h2.252a.575.575,0,0,1,.57.57v.741Zm-14.11-.37a10.311,10.311,0,0,1,1.07-4.556,7.834,7.834,0,0,0-1.446-.147h-.982a10.234,10.234,0,0,1-8.572,0H7.9a7.9,7.9,0,0,0-7.9,7.9v2.446A2.823,2.823,0,0,0,2.822,30.1H23.228A10.347,10.347,0,0,1,18.813,21.635ZM13.169,15.05A7.525,7.525,0,1,0,5.644,7.525,7.525,7.525,0,0,0,13.169,15.05Z" fill="#fff"/>
</svg>
