<svg id="youtube" xmlns="http://www.w3.org/2000/svg" width="49.017" height="37.337" viewBox="0 0 49.017 37.337">
  <defs>
    <style>
      .cls-1 {
        fill: #f3f3f3;
      }
    </style>
  </defs>
  <path id="パス_7" data-name="パス 7" class="cls-1" d="M46.212,64.62C43.7,62.592,34.843,61,24.508,61S5.316,62.592,2.8,64.62C.5,66.481,0,74.894,0,79.668S.5,92.856,2.8,94.717c2.512,2.028,11.369,3.62,21.7,3.62s19.192-1.592,21.7-3.62c2.308-1.861,2.8-10.274,2.8-15.048S48.52,66.481,46.212,64.62ZM31.862,79.9,20.484,86.69a.268.268,0,0,1-.405-.23V72.877a.268.268,0,0,1,.405-.23l11.378,6.791a.266.266,0,0,1,.13.23A.27.27,0,0,1,31.862,79.9Z" transform="translate(0 -61)"/>
</svg>
